<?xml version="1.0" encoding="UTF-8" standalone="no"?>
<!DOCTYPE svg PUBLIC "-//W3C//DTD SVG 1.1//EN"
 "http://www.w3.org/Graphics/SVG/1.1/DTD/svg11.dtd">
<!-- Generated by graphviz version 2.44.0 (20200408.0750)
 -->
<!-- Title: emailForwarding Pages: 1 -->
<svg width="724pt" height="299pt"
 viewBox="0.00 0.00 724.00 299.00" xmlns="http://www.w3.org/2000/svg" xmlns:xlink="http://www.w3.org/1999/xlink">
<g id="graph0" class="graph" transform="scale(1 1) rotate(0) translate(4 295)">
<title>emailForwarding</title>
<g id="clust1" class="cluster">
<title>cluster_nyu</title>
<polygon fill="transparent" stroke="black" stroke-dasharray="1,5" points="68,-8 68,-155 300,-155 300,-8 68,-8"/>
<text text-anchor="middle" x="184" y="-15.8" font-family="Times,serif" font-size="14.00">NYU Emails</text>
</g>
<g id="clust2" class="cluster">
<title>cluster_waterloo</title>
<polygon fill="transparent" stroke="black" stroke-dasharray="1,5" points="308,-8 308,-83 506,-83 506,-8 308,-8"/>
<text text-anchor="middle" x="407" y="-15.8" font-family="Times,serif" font-size="14.00">U Waterloo Email</text>
</g>
<!-- rank1 -->
<g id="node1" class="node">
<title>rank1</title>
</g>
<!-- rank2 -->
<g id="node2" class="node">
<title>rank2</title>
</g>
<!-- rank1&#45;&gt;rank2 -->
<g id="edge1" class="edge">
<title>rank1&#45;&gt;rank2</title>
<path fill="none" stroke="transparent" d="M29,-75.3C29,-83.02 29,-92.29 29,-100.89"/>
<polygon fill="transparent" stroke="transparent" points="25.5,-100.9 29,-110.9 32.5,-100.9 25.5,-100.9"/>
</g>
<!-- rank3 -->
<g id="node3" class="node">
<title>rank3</title>
</g>
<!-- rank2&#45;&gt;rank3 -->
<g id="edge2" class="edge">
<title>rank2&#45;&gt;rank3</title>
<path fill="none" stroke="transparent" d="M29,-147.3C29,-155.02 29,-164.29 29,-172.89"/>
<polygon fill="transparent" stroke="transparent" points="25.5,-172.9 29,-182.9 32.5,-172.9 25.5,-172.9"/>
</g>
<!-- rank4 -->
<g id="node4" class="node">
<title>rank4</title>
</g>
<!-- rank3&#45;&gt;rank4 -->
<g id="edge3" class="edge">
<title>rank3&#45;&gt;rank4</title>
<path fill="none" stroke="transparent" d="M58.14,-218.06C75.96,-227.89 98.96,-240.56 118.19,-251.16"/>
<polygon fill="transparent" stroke="transparent" points="116.55,-254.25 127,-256.02 119.93,-248.12 116.55,-254.25"/>
</g>
<!-- gmail -->
<g id="node6" class="node">
<title>gmail</title>
<text text-anchor="middle" x="188" y="-197.3" font-family="Courier,monospace" font-size="14.00">nathanielstemen@gmail.com</text>
</g>
<!-- rank3&#45;&gt;gmail -->
<!-- main -->
<g id="node8" class="node">
<title>main</title>
<text text-anchor="start" x="227.5" y="-275.3" font-family="Courier,monospace" font-size="14.00">nate@stemen.email</text>
<text text-anchor="start" x="276" y="-263.7" font-family="Helvetica,sans-Serif" font-size="11.00">(primary)</text>
</g>
<!-- rank4&#45;&gt;main -->
<!-- yahoo -->
<g id="node5" class="node">
<title>yahoo</title>
<text text-anchor="middle" x="409" y="-197.3" font-family="Courier,monospace" font-size="14.00">natestemen@yahoo.com</text>
</g>
<!-- steezy -->
<g id="node7" class="node">
<title>steezy</title>
<text text-anchor="middle" x="617" y="-197.3" font-family="Courier,monospace" font-size="14.00">steeeeeezy94@yahoo.com</text>
</g>
<!-- yahoo&#45;&gt;steezy -->
<!-- yahoo&#45;&gt;main -->
<g id="edge5" class="edge">
<title>yahoo&#45;&gt;main</title>
<path fill="none" stroke="black" d="M381.85,-219.12C367.47,-228.19 349.62,-239.45 334.09,-249.24"/>
<polygon fill="black" stroke="black" points="331.85,-246.52 325.26,-254.81 335.58,-252.44 331.85,-246.52"/>
</g>
<!-- gmail&#45;&gt;yahoo -->
<!-- gmail&#45;&gt;main -->
<g id="edge4" class="edge">
<title>gmail&#45;&gt;main</title>
<path fill="none" stroke="black" d="M214.91,-219.12C229.16,-228.19 246.85,-239.45 262.24,-249.24"/>
<polygon fill="black" stroke="black" points="260.67,-252.39 270.99,-254.81 264.43,-246.49 260.67,-252.39"/>
</g>
<!-- steezy&#45;&gt;main -->
<g id="edge6" class="edge">
<title>steezy&#45;&gt;main</title>
<path fill="none" stroke="black" d="M539.37,-219.03C492.87,-229.24 433.64,-242.24 385.49,-252.8"/>
<polygon fill="black" stroke="black" points="384.72,-249.39 375.7,-254.95 386.22,-256.23 384.72,-249.39"/>
</g>
<!-- secondary -->
<g id="node12" class="node">
<title>secondary</title>
<text text-anchor="start" x="402.5" y="-275.3" font-family="Courier,monospace" font-size="14.00">natestemen@pm.me</text>
<text text-anchor="start" x="440" y="-263.7" font-family="Helvetica,sans-Serif" font-size="11.00">(secondary)</text>
</g>
<!-- main&#45;&gt;secondary -->
<!-- nyu -->
<g id="node9" class="node">
<title>nyu</title>
<text text-anchor="middle" x="184" y="-125.3" font-family="Courier,monospace" font-size="14.00">ns@nyu.edu</text>
</g>
<!-- poly -->
<g id="node10" class="node">
<title>poly</title>
<text text-anchor="middle" x="184" y="-53.3" font-family="Courier,monospace" font-size="14.00">ns2627@students.poly.edu</text>
</g>
<!-- poly&#45;&gt;nyu -->
<g id="edge7" class="edge">
<title>poly&#45;&gt;nyu</title>
<path fill="none" stroke="black" d="M184,-75.3C184,-83.02 184,-92.29 184,-100.89"/>
<polygon fill="black" stroke="black" points="180.5,-100.9 184,-110.9 187.5,-100.9 180.5,-100.9"/>
</g>
<!-- waterloo -->
<g id="node11" class="node">
<title>waterloo</title>
<text text-anchor="middle" x="407" y="-53.3" font-family="Courier,monospace" font-size="14.00">nstemen@uwaterloo.ca</text>
</g>
</g>
</svg>
