<?xml version="1.0" encoding="UTF-8" standalone="no"?>
<!DOCTYPE svg PUBLIC "-//W3C//DTD SVG 1.1//EN"
 "http://www.w3.org/Graphics/SVG/1.1/DTD/svg11.dtd">
<!-- Generated by graphviz version 2.44.0 (20200408.0750)
 -->
<!-- Title: emailForwarding Pages: 1 -->
<svg width="974pt" height="171pt"
 viewBox="0.00 0.00 974.00 171.00" xmlns="http://www.w3.org/2000/svg" xmlns:xlink="http://www.w3.org/1999/xlink">
<g id="graph0" class="graph" transform="scale(1 1) rotate(0) translate(4 167)">
<title>emailForwarding</title>
<g id="clust1" class="cluster">
<title>cluster_nyu</title>
<polygon fill="transparent" stroke="black" stroke-dasharray="1,5" points="726,-8 726,-155 958,-155 958,-8 726,-8"/>
<text text-anchor="middle" x="842" y="-15.8" font-family="Times,serif" font-size="14.00">NYU Emails</text>
</g>
<!-- rank1 -->
<g id="node1" class="node">
<title>rank1</title>
</g>
<!-- rank2 -->
<g id="node2" class="node">
<title>rank2</title>
</g>
<!-- rank1&#45;&gt;rank2 -->
<g id="edge1" class="edge">
<title>rank1&#45;&gt;rank2</title>
<path fill="none" stroke="transparent" d="M58.14,-74.06C75.96,-83.89 98.96,-96.56 118.19,-107.16"/>
<polygon fill="transparent" stroke="transparent" points="116.55,-110.25 127,-112.02 119.93,-104.12 116.55,-110.25"/>
</g>
<!-- gmail -->
<g id="node4" class="node">
<title>gmail</title>
<text text-anchor="middle" x="188" y="-53.3" font-family="Courier,monospace" font-size="14.00">nathanielstemen@gmail.com</text>
</g>
<!-- rank1&#45;&gt;gmail -->
<!-- main -->
<g id="node6" class="node">
<title>main</title>
<text text-anchor="start" x="227.5" y="-131.3" font-family="Courier,monospace" font-size="14.00">nate@stemen.email</text>
<text text-anchor="start" x="276" y="-119.7" font-family="Helvetica,sans-Serif" font-size="11.00">(primary)</text>
</g>
<!-- rank2&#45;&gt;main -->
<!-- yahoo -->
<g id="node3" class="node">
<title>yahoo</title>
<text text-anchor="middle" x="409" y="-53.3" font-family="Courier,monospace" font-size="14.00">natestemen@yahoo.com</text>
</g>
<!-- steezy -->
<g id="node5" class="node">
<title>steezy</title>
<text text-anchor="middle" x="617" y="-53.3" font-family="Courier,monospace" font-size="14.00">steeeeeezy94@yahoo.com</text>
</g>
<!-- yahoo&#45;&gt;steezy -->
<!-- yahoo&#45;&gt;main -->
<g id="edge3" class="edge">
<title>yahoo&#45;&gt;main</title>
<path fill="none" stroke="black" d="M381.85,-75.12C367.47,-84.19 349.62,-95.45 334.09,-105.24"/>
<polygon fill="black" stroke="black" points="331.85,-102.52 325.26,-110.81 335.58,-108.44 331.85,-102.52"/>
</g>
<!-- gmail&#45;&gt;yahoo -->
<!-- gmail&#45;&gt;main -->
<g id="edge2" class="edge">
<title>gmail&#45;&gt;main</title>
<path fill="none" stroke="black" d="M214.91,-75.12C229.16,-84.19 246.85,-95.45 262.24,-105.24"/>
<polygon fill="black" stroke="black" points="260.67,-108.39 270.99,-110.81 264.43,-102.49 260.67,-108.39"/>
</g>
<!-- steezy&#45;&gt;main -->
<g id="edge4" class="edge">
<title>steezy&#45;&gt;main</title>
<path fill="none" stroke="black" d="M539.37,-75.03C492.87,-85.24 433.64,-98.24 385.49,-108.8"/>
<polygon fill="black" stroke="black" points="384.72,-105.39 375.7,-110.95 386.22,-112.23 384.72,-105.39"/>
</g>
<!-- secondary -->
<g id="node9" class="node">
<title>secondary</title>
<text text-anchor="start" x="402.5" y="-131.3" font-family="Courier,monospace" font-size="14.00">natestemen@pm.me</text>
<text text-anchor="start" x="440" y="-119.7" font-family="Helvetica,sans-Serif" font-size="11.00">(secondary)</text>
</g>
<!-- main&#45;&gt;secondary -->
<!-- nyu -->
<g id="node7" class="node">
<title>nyu</title>
<text text-anchor="middle" x="842" y="-125.3" font-family="Courier,monospace" font-size="14.00">natestemen@nyu.edu</text>
</g>
<!-- poly -->
<g id="node8" class="node">
<title>poly</title>
<text text-anchor="middle" x="842" y="-53.3" font-family="Courier,monospace" font-size="14.00">ns2627@students.poly.edu</text>
</g>
<!-- poly&#45;&gt;nyu -->
<g id="edge5" class="edge">
<title>poly&#45;&gt;nyu</title>
<path fill="none" stroke="black" d="M842,-75.3C842,-83.02 842,-92.29 842,-100.89"/>
<polygon fill="black" stroke="black" points="838.5,-100.9 842,-110.9 845.5,-100.9 838.5,-100.9"/>
</g>
</g>
</svg>
